HIERARCHY
ROOT hip
{
	OFFSET 0.000000 0.000000 0.000000 
	CHANNELS 6 Xposition Yposition Zposition Xrotation Zrotation Yrotation
	JOINT abdomen
	{
		OFFSET 0.000000 3.402643 0.000000 
		CHANNELS 3 Xrotation Zrotation Yrotation
		JOINT chest
		{
			OFFSET 0.000000 8.438565 -0.680529 
			CHANNELS 3 Xrotation Zrotation Yrotation
			JOINT neck
			{
				OFFSET 0.000000 10.207942 -0.272212 
				CHANNELS 3 Xrotation Zrotation Yrotation
				JOINT head
				{
					OFFSET 0.000000 3.130431 0.000000 
					CHANNELS 3 Xrotation Zrotation Yrotation
					End Site
					{
						OFFSET 0.000000 3.130435 0.000000 
					}
				}
			}
			JOINT lCollar
			{
				OFFSET 3.470700 6.669187 -0.816635 
				CHANNELS 3 Yrotation Zrotation Xrotation
				JOINT lShldr
				{
					OFFSET 3.198488 0.000000 0.000000 
					CHANNELS 3 Zrotation Yrotation Xrotation
					JOINT lForeArm
					{
						OFFSET 10.139888 0.000000 0.000000 
						CHANNELS 3 Yrotation Zrotation Xrotation
						JOINT lHand
						{
							OFFSET 8.370511 0.000000 0.000000 
							CHANNELS 3 Zrotation Yrotation Xrotation
							End Site
							{
								OFFSET 4.083176 0.000000 0.000000 
							}
						}
					}
				}
			}
			JOINT rCollar
			{
				OFFSET -3.470700 6.669187 -0.816635 
				CHANNELS 3 Yrotation Zrotation Xrotation
				JOINT rShldr
				{
					OFFSET -3.198488 0.000000 0.000000 
					CHANNELS 3 Zrotation Yrotation Xrotation
					JOINT rForeArm
					{
						OFFSET -10.139888 0.000000 0.000000 
						CHANNELS 3 Yrotation Zrotation Xrotation
						JOINT rHand
						{
							OFFSET -8.370511 0.000000 0.000000 
							CHANNELS 3 Zrotation Yrotation Xrotation
							End Site
							{
								OFFSET -4.083176 0.000000 0.000000 
							}
						}
					}
				}
			}
		}
	}
	JOINT lThigh
	{
		OFFSET 5.308129 -1.633274 1.361059 
		CHANNELS 3 Xrotation Zrotation Yrotation
		JOINT lShin
		{
			OFFSET -2.041588 -20.007561 0.000000 
			CHANNELS 3 Xrotation Zrotation Yrotation
			JOINT lFoot
			{
				OFFSET 0.000000 -19.190928 -1.224953 
				CHANNELS 3 Xrotation Yrotation Zrotation
				End Site
				{
					OFFSET 0.000000 -2.449906 4.627600 
				}
			}
		}
	}
	JOINT rThigh
	{
		OFFSET -5.308129 -1.633274 1.361059 
		CHANNELS 3 Xrotation Zrotation Yrotation
		JOINT rShin
		{
			OFFSET 2.041588 -20.007561 0.000000 
			CHANNELS 3 Xrotation Zrotation Yrotation
			JOINT rFoot
			{
				OFFSET 0.000000 -19.190928 -1.224953 
				CHANNELS 3 Xrotation Yrotation Zrotation
				End Site
				{
					OFFSET 0.000000 -2.449906 4.627600 
				}
			}
		}
	}
}
MOTION
Frames: 8
Frame Time: 0.016667
-0.298916 38.538944 6.569280 8.682860 -0.955719 48.349998 -16.624100 -2.211440 3.232290 12.361800 -5.683940 1.949810 -1.064350 11.767700 -12.997700 8.522290 10.895400 -5.103520 2.000000 -2.000000 0.000000 -95.665001 -27.109800 -140.199997 135.264008 -0.110791 0.112897 0.064124 -0.064770 -156.970993 -2.000000 2.000000 0.000000 -14.215200 18.067600 120.004997 -30.224899 0.332979 0.068826 -0.055731 -0.010879 -129.529007 -4.695883 13.916385 -8.158847 39.458260 3.770257 2.473484 -4.713764 -7.062042 0.259803 -45.997211 -11.677138 9.966356 52.004326 -1.900686 -3.517625 -7.122519 -5.229505 -2.761515 
-0.583766 38.746532 6.948702 8.843150 -1.968520 50.543301 -16.563200 -1.832640 3.604220 12.480700 -6.265870 2.224090 -2.040850 10.655100 -14.169200 8.126730 10.404900 -5.710400 2.000000 -2.000000 0.000000 -94.579201 -26.034901 -139.806000 135.869003 -0.109707 0.111791 0.063863 -0.064050 -156.697006 -2.000000 2.000000 0.000000 -15.895200 18.252399 111.228996 -22.578400 0.341086 0.052495 -0.056536 -0.016344 -127.556999 -6.718880 15.257939 -9.849512 39.071606 3.796565 2.435775 -1.712089 -8.742201 0.604486 -45.517517 -11.693542 9.181333 51.405704 -1.911003 -3.470564 -7.699115 -6.225262 -2.983366 
-0.812289 38.948597 7.289537 9.267030 -2.544520 52.866199 -16.598801 -1.632800 3.637990 12.322900 -6.302090 2.277060 -2.997250 10.585500 -15.520600 7.848050 10.360100 -6.331160 2.000000 -2.000000 0.000000 -93.893204 -24.968901 -138.998001 135.908997 -0.109638 0.111720 0.053053 -0.051289 -155.563995 -2.000000 2.000000 0.000000 -15.445300 17.708599 107.445999 -22.334200 0.341308 0.051957 -0.056260 -0.014615 -128.182007 -8.324294 15.748690 -11.245117 38.201820 3.839522 2.387058 1.185575 -9.522587 1.083335 -45.215355 -12.298642 8.683545 51.101963 -1.921288 -3.463759 -8.131815 -7.173660 -3.226520 
-1.040806 39.150524 7.630348 9.672760 -3.128800 55.179600 -16.634600 -1.433030 3.671830 12.155300 -6.338070 2.330250 -3.951670 10.493900 -16.870600 7.569580 10.324900 -6.939360 2.000000 -2.000000 0.000000 -93.197502 -23.912800 -138.179001 135.938004 -0.109586 0.111666 0.052061 -0.048247 -154.421997 -2.000000 2.000000 0.000000 -14.956400 17.203199 103.682999 -22.090099 0.341528 0.051418 -0.056004 -0.012884 -128.807007 -9.941308 16.212816 -12.673698 37.314133 3.862017 2.340655 4.074719 -10.256552 1.627992 -44.919960 -12.909979 8.152630 50.807007 -1.952465 -3.456948 -8.601323 -8.096415 -3.469571 
-1.198503 39.314480 7.930010 9.793870 -3.503010 56.876099 -16.546600 -0.849872 3.311540 12.202600 -5.130820 2.089890 -3.820820 12.713300 -17.657499 8.121690 11.340300 -7.082080 2.000000 -2.000000 0.000000 -93.558701 -23.063801 -138.522003 136.123001 -0.109256 0.111324 0.051905 -0.047751 -154.235992 -2.000000 2.000000 0.000000 -14.980200 17.182199 105.981003 -23.271700 0.340441 0.054019 -0.054952 -0.003565 -132.156006 -10.670079 16.577360 -13.390143 36.246174 3.909944 2.283391 5.919788 -10.090014 1.968512 -44.543514 -13.283518 7.368016 50.738567 -1.941341 -3.443831 -9.034026 -8.665820 -3.648487 
-1.356204 39.478439 8.229661 9.905820 -3.886680 58.579201 -16.450399 -0.256839 2.950220 12.246000 -3.923340 1.861690 -3.713040 14.923800 -18.439301 8.669400 12.372900 -7.204490 2.000000 -2.000000 0.000000 -93.919899 -22.214800 -138.856003 136.298996 -0.108945 0.111000 0.051743 -0.047229 -154.041000 -2.000000 2.000000 0.000000 -15.004000 17.161100 108.276001 -24.443600 0.339310 0.056577 -0.054446 0.005828 -135.516006 -11.425011 16.904318 -14.109396 35.106956 3.967207 2.208235 7.827578 -9.897213 2.291640 -44.162762 -13.657592 6.588917 50.670673 -1.938489 -3.453963 -9.455531 -9.219526 -3.822801 
-1.436873 39.596706 8.421198 10.005000 -3.991300 59.071499 -16.344299 -0.116235 2.825320 12.378200 -3.383290 1.764970 -3.663920 15.096500 -18.708200 8.720160 12.410900 -7.337400 2.000000 -2.000000 0.000000 -93.599197 -21.757900 -140.037994 136.641006 -0.108344 0.110366 0.052094 -0.048351 -154.460999 -2.000000 2.000000 0.000000 -14.577400 18.402300 106.861000 -24.590099 0.339165 0.056894 -0.054557 0.002630 -134.373001 -11.372103 16.895947 -13.918665 34.221073 4.037148 2.135222 7.702021 -9.223278 2.212520 -43.803116 -13.681804 6.433214 50.150368 -1.953282 -3.416393 -9.485075 -9.436246 -3.886516 
-1.517532 39.715111 8.612758 10.094400 -4.095980 59.574001 -16.248100 0.030548 2.689330 12.509500 -2.852540 1.662870 -3.614070 15.278700 -18.987101 8.771140 12.458600 -7.477110 2.000000 -2.000000 0.000000 -93.297997 -21.301100 -141.210999 136.973007 -0.107763 0.109747 0.052461 -0.049497 -154.889999 -2.000000 2.000000 0.000000 -14.180100 19.643499 105.443001 -24.726801 0.339029 0.057191 -0.054729 -0.000537 -133.240005 -11.206835 16.922792 -13.719959 33.218220 4.099338 2.087729 7.582769 -8.567537 2.089332 -43.482777 -13.689638 6.321940 49.729111 -1.973159 -3.416569 -9.561207 -9.639208 -3.938096 
